<?xml version="1.0" encoding="utf-8"?>
<!-- Generator: Adobe Illustrator 15.1.0, SVG Export Plug-In . SVG Version: 6.00 Build 0)  -->
<!DOCTYPE svg PUBLIC "-//W3C//DTD SVG 1.1//EN" "http://www.w3.org/Graphics/SVG/1.1/DTD/svg11.dtd">
<svg version="1.1" id="Layer_1" xmlns="http://www.w3.org/2000/svg" xmlns:xlink="http://www.w3.org/1999/xlink" x="0px" y="0px"
	 width="116px" height="115px" viewBox="0 0 116 115" enable-background="new 0 0 116 115" xml:space="preserve">
<g id="Layer_1_1_">
	
		<linearGradient id="SVGID_1_" gradientUnits="userSpaceOnUse" x1="54.2583" y1="124.7695" x2="45.622" y2="12.8572" gradientTransform="matrix(1 0 0 -1 8.3999 126.0996)">
		<stop  offset="0" style="stop-color:#B32126"/>
		<stop  offset="1" style="stop-color:#C04045"/>
	</linearGradient>
	<circle fill="url(#SVGID_1_)" cx="58.336" cy="57.336" r="57.336"/>
</g>
<g id="Layer_2">
</g>
<g id="Layer_5">
</g>
<g id="Layer_3">
	<path fill="#FFFFFF" d="M48.498,22.565c0.786-7.76,7.745-13.413,15.547-12.623c7.797,0.79,13.485,7.724,12.7,15.48
		c-0.784,7.763-7.747,13.414-15.545,12.624C53.398,37.257,47.714,30.324,48.498,22.565z"/>
	<path fill="#FFFFFF" d="M86.303,73.882c-1.346-4.609,0.102-9.21,0.227-13.341c0.049-0.896,0.068-1.804,0.051-2.724
		c-0.105-5.959-1.631-11.125-4.083-16.086l-13.298-1.344l-1.923,20.479c-0.396,3.916-4.308,6.724-8.728,6.275
		c-0.053-0.006-0.098-0.015-0.145-0.02l-0.01-0.004c-0.049-0.002-0.095-0.002-0.145-0.006c-4.422-0.446-7.687-3.982-7.291-7.898
		l2.217-20.452L39.88,37.415c-3.399,4.369-5.93,9.126-7.227,14.942c-2.845,12.755,1.301,24.323,9.613,29.707
		c3.774,2.563,8.661,4.356,14.115,4.912h0.002c0.004,0,0.004,0,0.004,0h0.005c5.454,0.553,10.602-0.232,14.813-1.982
		c0.325-0.127,0.646-0.264,0.965-0.41c2.229,4.589,6.538,13.186,7.762,15.57c5.599-2.694,10.615-6.451,14.763-11.039
		C91.499,84.913,88.611,79.739,86.303,73.882z"/>
	<g>
		<path fill="#FFFFFF" d="M28.03,70.079c-3.095,4.428-6.484,8.244-9.953,11.279c3.143,5.326,7.303,10.014,12.251,13.773
			c1.591-1.986,5.199-6.503,7.757-9.82C33.188,81.678,29.752,76.344,28.03,70.079z"/>
	</g>
	<g>
		<path fill="#FFFFFF" d="M17.351,35.138c-2.33,4.243-3.975,8.357-4.916,13.306l15.629,1.582c1.178-4.703,3.095-8.986,5.922-13.203
			L17.351,35.138z"/>
	</g>
	<g>
		<path fill="#FFFFFF" d="M105.08,44.021c1.432,4.625,2.219,8.982,2.148,14.022L91.6,56.46c-0.211-4.844-1.231-9.426-3.157-14.124
			L105.08,44.021z"/>
	</g>
</g>
<g id="Layer_1_2_">
	
		<linearGradient id="SVGID_2_" gradientUnits="userSpaceOnUse" x1="53.2583" y1="124.7695" x2="44.622" y2="12.8572" gradientTransform="matrix(1 0 0 -1 8.3999 126.0996)">
		<stop  offset="0" style="stop-color:#B32126"/>
		<stop  offset="1" style="stop-color:#C04045"/>
	</linearGradient>
	<circle fill="url(#SVGID_2_)" cx="57.336" cy="57.336" r="57.336"/>
</g>
<g id="Layer_2_1_">
</g>
<g id="Layer_5_1_">
</g>
<g id="Layer_3_1_">
	<path fill="#FFFFFF" d="M47.498,22.565c0.786-7.76,7.745-13.413,15.547-12.623c7.797,0.79,13.485,7.724,12.7,15.48
		c-0.784,7.763-7.747,13.414-15.545,12.624C52.398,37.257,46.714,30.324,47.498,22.565z"/>
	<path fill="#FFFFFF" d="M85.303,73.882c-1.346-4.609,0.102-9.21,0.227-13.341c0.049-0.896,0.068-1.804,0.051-2.724
		c-0.105-5.959-1.631-11.125-4.083-16.086l-13.298-1.344l-1.923,20.479c-0.396,3.916-4.308,6.724-8.728,6.275
		c-0.053-0.006-0.098-0.015-0.145-0.02l-0.01-0.004c-0.049-0.002-0.095-0.002-0.145-0.006c-4.422-0.446-7.687-3.982-7.291-7.898
		l2.217-20.452L38.88,37.415c-3.399,4.369-5.93,9.126-7.227,14.942c-2.845,12.755,1.301,24.323,9.613,29.707
		c3.774,2.563,8.661,4.356,14.115,4.912h0.002c0.004,0,0.004,0,0.004,0h0.005c5.454,0.553,10.602-0.232,14.813-1.982
		c0.325-0.127,0.646-0.264,0.965-0.41c2.229,4.589,6.538,13.186,7.762,15.57c5.599-2.694,10.615-6.451,14.763-11.039
		C90.499,84.913,87.611,79.739,85.303,73.882z"/>
	<g>
		<path fill="#FFFFFF" d="M27.03,70.079c-3.095,4.428-6.484,8.244-9.953,11.279c3.143,5.326,7.303,10.014,12.251,13.773
			c1.591-1.986,5.199-6.503,7.757-9.82C32.188,81.678,28.752,76.344,27.03,70.079z"/>
	</g>
	<g>
		<path fill="#FFFFFF" d="M16.351,35.138c-2.33,4.243-3.975,8.357-4.916,13.306l15.629,1.582c1.178-4.703,3.095-8.986,5.922-13.203
			L16.351,35.138z"/>
	</g>
	<g>
		<path fill="#FFFFFF" d="M104.08,44.021c1.432,4.625,2.219,8.982,2.148,14.022L90.6,56.46c-0.211-4.844-1.231-9.426-3.157-14.124
			L104.08,44.021z"/>
	</g>
</g>
</svg>
