<?xml version="1.0" encoding="UTF-8"?>
<svg width="142px" height="50px" viewBox="0 0 142 50" version="1.1" xmlns="http://www.w3.org/2000/svg" xmlns:xlink="http://www.w3.org/1999/xlink">
    <!-- Generator: Sketch 52.5 (67469) - http://www.bohemiancoding.com/sketch -->
    <title>logo-icon</title>
    <desc>Created with Sketch.</desc>
    <g id="logo-icon" stroke="none" stroke-width="1" fill="none" fill-rule="evenodd">
        <rect fill="#FFFFFF" x="0" y="0" width="142" height="50"></rect>
        <g id="BUREAU.NL" transform="translate(0.996491, 26.237624)" fill="#282E2A">
            <path d="M12.6512365,15.1775936 C12.6512365,14.6471164 12.5079588,14.2032372 12.2224415,13.8459559 C11.935886,13.4891932 11.5683474,13.3102933 11.1187875,13.3102933 L6.18504897,13.3102933 L6.18504897,16.9531104 L10.9043899,16.9531104 C11.3944414,16.9531104 11.808701,16.7996195 12.1456114,16.4936747 C12.4825218,16.1877299 12.6512365,15.7490362 12.6512365,15.1775936 Z M6.18504897,5.32411732 L6.18504897,8.68671773 L10.3059953,8.68671773 C10.7190872,8.68671773 11.0964864,8.57384723 11.4371429,8.34758367 C11.7777994,8.12132011 11.9483901,7.668793 11.9483901,6.99000234 C11.9483901,6.39377436 11.8035192,5.96737468 11.5148272,5.71028075 C11.2250855,5.45318683 10.884429,5.32411732 10.4918079,5.32411732 L6.18504897,5.32411732 Z M18.6957162,16.4985155 C18.6957162,17.4899818 18.4906697,18.3418346 18.0810971,19.0545986 C17.6710041,19.7668378 17.1079069,20.3510104 16.391285,20.8050169 C15.6746631,21.2595483 14.8404257,21.5954607 13.8880523,21.8122291 C12.935679,22.0289976 11.9265796,22.1371194 10.861795,22.1371194 L0.140569295,22.1371194 L0.140569295,0.14010835 L12.7972466,0.14010835 C13.5544615,0.14010835 14.2408989,0.305440216 14.8555179,0.635579083 C15.4696166,0.966242814 15.9921209,1.39453107 16.4219899,1.92149359 C16.8523794,2.44793124 17.1849294,3.04732486 17.4206809,3.71862472 C17.6559119,4.38992458 17.7740478,5.07697033 17.7740478,5.77871225 C17.7740478,6.81164276 17.5127957,7.79786046 16.9908118,8.73736534 C16.4683075,9.67791995 15.6850715,10.3849105 14.6405834,10.8593867 C15.8895976,11.2315146 16.8778801,11.8776211 17.6049105,12.7961314 C18.3314204,13.7151666 18.6957162,14.9491197 18.6957162,16.4985155 Z" id="B"></path>
            <path d="M31.0507311,16.9284932 C31.7461104,16.9284932 32.3400693,16.7739812 32.8315678,16.4644334 C33.3225461,16.1554094 33.721466,15.7489642 34.0288475,15.2435266 C34.335709,14.7386128 34.5609141,14.1561811 34.7039427,13.4962315 C34.8469714,12.8373294 34.9192659,12.1470012 34.9192659,11.424723 L34.9192659,0.14010835 L40.9056648,0.14010835 L40.9056648,11.424723 C40.9056648,12.9504636 40.7111458,14.3777356 40.3221079,15.7070627 C39.9335901,17.0369135 39.3297492,18.1860639 38.5111052,19.1545138 C37.6919412,20.1234874 36.6636952,20.8860958 35.4258473,21.4423391 C34.1869592,21.9991061 32.7285871,22.2772277 31.0507311,22.2772277 C29.3109827,22.2772277 27.8219245,21.983393 26.5835565,21.3957236 C25.3446684,20.8085779 24.3268245,20.019781 23.5289847,19.0303804 C22.7306248,18.0415035 22.147068,16.8928769 21.7788342,15.5834531 C21.4106005,14.274553 21.2259635,12.8886588 21.2259635,11.424723 L21.2259635,0.14010835 L27.2128825,0.14010835 L27.2128825,11.424723 C27.2128825,12.1470012 27.2841368,12.8425671 27.4276855,13.5119446 C27.5707142,14.1818458 27.7964394,14.7695152 28.1033008,15.274429 C28.4101623,15.7798666 28.8044012,16.1815979 29.2854976,16.4801465 C29.7660738,16.7792189 30.3543116,16.9284932 31.0507311,16.9284932" id="U"></path>
            <path d="M49.1992532,10.2279096 L53.0189891,10.2279096 C53.391441,10.2279096 53.7381158,10.0192695 54.0595397,9.60092745 C54.3799114,9.18311632 54.5408864,8.59807456 54.5408864,7.84633307 C54.5408864,7.07335594 54.3541344,6.48300528 53.9816825,6.07528108 C53.6092306,5.66808777 53.2362527,5.46422567 52.8638008,5.46422567 L49.1992532,5.46422567 L49.1992532,10.2279096 Z M43.1547735,22.1371194 L43.1547735,0.14010835 L53.1720917,0.14010835 C54.2371768,0.14010835 55.2205325,0.36264498 56.1221588,0.806668537 C57.0232646,1.2506921 57.7968308,1.82855254 58.4423369,2.54129958 C59.0873225,3.25404661 59.5943572,4.0701892 59.9634409,4.98867765 C60.3320041,5.9082158 60.5162857,6.8324776 60.5162857,7.76198791 C60.5162857,9.04262323 60.2398633,10.2350837 59.6870185,11.339894 C59.1336532,12.4452293 58.3652927,13.3490219 57.3819369,14.0512719 L61.991059,22.1371194 L55.2309439,22.1371194 L51.3896618,15.3833426 L49.146528,15.3833426 L49.146528,22.1371194 L43.1547735,22.1371194 Z" id="R"></path>
            <polyline id="E" points="79.8433594 16.8702442 79.8433594 22.1371194 64.380737 22.1371194 64.380737 0.14010835 79.567953 0.14010835 79.567953 5.40698353 70.3392486 5.40698353 70.3392486 8.50517627 78.2235346 8.50517627 78.2235346 13.4004573 70.3392486 13.4004573 70.3392486 16.8702442 79.8433594 16.8702442"></polyline>
            <path d="M94.6031353,13.8707267 L92.6809079,7.00541752 L90.6671951,13.8707267 L94.6031353,13.8707267 Z M89.9286465,0.14010835 L95.3727726,0.14010835 L102.896724,22.1371194 L96.840671,22.1371194 L95.5256247,17.8306179 L89.7447058,17.8306179 L88.4602298,22.1371194 L82.3736067,22.1371194 L89.9286465,0.14010835 Z" id="A"></path>
            <g id="U-punt" transform="translate(105.145832, 0.000000)">
                <path d="M11.3861129,19.7400234 C11.3861129,19.9514388 11.3483719,20.1532202 11.2713599,20.3442969 C11.194858,20.5359089 11.0892853,20.7018299 10.9546419,20.8425951 C10.8199985,20.9838955 10.6613844,21.0946879 10.4787998,21.1755075 C10.2967251,21.2557919 10.1049602,21.2964693 9.9029951,21.2964693 C9.70153996,21.2964693 9.51232515,21.2557919 9.33433061,21.1755075 C9.15633608,21.0946879 9.00129213,20.9838955 8.8666487,20.8425951 C8.73200527,20.7018299 8.62643258,20.5359089 8.54993063,20.3442969 C8.47291867,20.1532202 8.43415768,19.9514388 8.43415768,19.7400234 C8.43415768,19.5280727 8.47291867,19.3316437 8.54993063,19.1507363 C8.62643258,18.9687584 8.73200527,18.8076545 8.8666487,18.6668893 C9.00129213,18.5255888 9.15633608,18.4158669 9.33433061,18.3345121 C9.51232515,18.2536925 9.70153996,18.2140856 9.9029951,18.2140856 C10.1049602,18.2140856 10.2967251,18.2536925 10.4787998,18.3345121 C10.6613844,18.4158669 10.8199985,18.5255888 10.9546419,18.6668893 C11.0892853,18.8076545 11.194858,18.9687584 11.2713599,19.1507363 C11.3483719,19.3316437 11.3861129,19.5280727 11.3861129,19.7400234 M9.9653369,16.9284932 C10.6607162,16.9284932 11.2546751,16.7739812 11.7461736,16.4644334 C12.2371519,16.1554094 12.6360718,15.7489642 12.9434533,15.2435266 C13.2503148,14.7386128 13.4755199,14.1561811 13.6185485,13.4962315 C13.7615772,12.8373294 13.8338717,12.1470012 13.8338717,11.424723 L13.8338717,0.14010835 L19.8202706,0.14010835 L19.8202706,11.424723 C19.8202706,12.9504636 19.6257516,14.3777356 19.2367137,15.7070627 C18.8481959,17.0369135 18.2443549,18.1860639 17.425711,19.1545138 C16.6065469,20.1234874 15.578301,20.8860958 14.3404531,21.4423391 C13.101565,21.9991061 11.6431929,22.2772277 9.9653369,22.2772277 C8.22558848,22.2772277 6.73653027,21.983393 5.49816226,21.3957236 C4.25927415,20.8085779 3.24143031,20.019781 2.44359052,19.0303804 C1.64523063,18.0415035 1.06167376,16.8928769 0.693440018,15.5834531 C0.325206272,14.274553 0.140569295,12.8886588 0.140569295,11.424723 L0.140569295,0.14010835 L6.1274883,0.14010835 L6.1274883,11.424723 C6.1274883,12.1470012 6.19874257,12.8425671 6.34229132,13.5119446 C6.48531996,14.1818458 6.71104517,14.7695152 7.01790662,15.274429 C7.32476808,15.7798666 7.71900703,16.1815979 8.20010338,16.4801465 C8.68067963,16.7792189 9.26891743,16.9284932 9.9653369,16.9284932" id="U"></path>
            </g>
            <g id="NL" transform="translate(127.355781, 0.000000)">
                <polyline id="N" points="6.43310643 3.51214249 0.421707884 3.51214249 0.421707884 0.14010835 12.6512365 0.14010835 12.6512365 2.76845016 6.43310643 7.69704964 12.6512365 7.69704964 12.6512365 11.0685597 0.421707884 11.0685597 0.421707884 8.38833236 6.43310643 3.51214249"></polyline>
                <polyline id="L" points="0.421707884 13.3102933 12.6512365 13.3102933 12.6512365 16.692475 3.35000783 16.692475 3.35000783 22.2772277 0.421707884 22.2772277 0.421707884 13.3102933"></polyline>
            </g>
        </g>
        <g id="UITZEND" transform="translate(0.996491, 1.485149)" fill="#0099CB">
            <path d="M10.2422586,16.6638142 C10.9575449,16.6638142 11.568067,16.5102907 12.0733089,16.2032439 C12.5780347,15.8966987 12.988318,15.4928218 13.3041587,14.9916129 C13.6199994,14.4904041 13.851203,13.9124335 13.9982857,13.2571995 C14.1458845,12.602969 14.2196839,11.9176324 14.2196839,11.2011897 L14.2196839,0 L20.3749649,0 L20.3749649,11.2011897 C20.3749649,12.7153522 20.1747261,14.131681 19.7752805,15.4516815 C19.3753188,16.7711802 18.7544751,17.91207 17.9127493,18.8733474 C17.0710235,19.8351266 16.0135765,20.5917061 14.7404082,21.1440894 C13.4667238,21.6964727 11.9675126,21.9729152 10.2422586,21.9729152 C8.4530107,21.9729152 6.92231868,21.6809197 5.64915037,21.097932 C4.37546599,20.5149443 3.32885661,19.7322759 2.50829009,18.7504283 C1.68772356,17.7685808 1.0880391,16.6281927 0.70923669,15.3287624 C0.329918203,14.0298338 0.140517,12.6541435 0.140517,11.2011897 L0.140517,0 L6.29631416,0 L6.29631416,11.2011897 C6.29631416,11.9176324 6.36959746,12.6079861 6.51719622,13.2727526 C6.6642789,13.9380208 6.89599863,14.5210084 7.21132325,15.0222173 C7.52716394,15.5234261 7.93228641,15.922286 8.42720672,16.2187969 C8.92109487,16.5153078 9.52645622,16.6638142 10.2422586,16.6638142" id="U"></path>
            <polygon id="I" points="23.7473729 21.8338461 29.9301209 21.8338461 29.9301209 0 23.7473729 0"></polygon>
            <polyline id="T" points="51.8507729 5.22769485 45.3961802 5.22769485 45.3961802 21.8338461 39.2266076 21.8338461 39.2266076 5.22769485 32.7404609 5.22769485 32.7404609 0 51.8507729 0 51.8507729 5.22769485"></polyline>
            <polyline id="Z" points="55.0826638 17.3748708 65.6065086 5.22819761 55.5583823 5.22819761 55.5583823 0 72.7381391 0 72.7381391 4.45897534 62.8485855 16.6061513 72.9283228 16.6061513 72.9283228 21.8338461 55.0826638 21.8338461 55.0826638 17.3748708"></polyline>
            <polyline id="E" points="91.8981177 16.6056485 91.8981177 21.8338461 75.8791798 21.8338461 75.8791798 0 91.6129341 0 91.6129341 5.22819761 82.0522936 5.22819761 82.0522936 8.30307563 90.2201405 8.30307563 90.2201405 13.1617449 82.0522936 13.1617449 82.0522936 16.6056485 91.8981177 16.6056485"></polyline>
            <polyline id="N" points="101.145799 11.1014359 101.145799 21.8338461 94.9894917 21.8338461 94.9894917 0 99.7882834 0 108.786598 11.1014359 108.786598 0 114.942906 0 114.942906 21.8338461 110.04914 21.8338461 101.145799 11.1014359"></polyline>
            <path d="M133.631667,10.9557213 C133.631667,10.1132448 133.514913,9.34282227 133.280886,8.64394974 C133.046858,7.94608495 132.711714,7.34949874 132.277016,6.85671047 C131.840755,6.36341832 131.30442,5.97845897 130.666447,5.70082468 C130.028995,5.42369426 129.316488,5.28462517 128.53101,5.28462517 L126.043749,5.28462517 L126.043749,16.68829 L128.53101,16.68829 C129.338379,16.68829 130.06079,16.5446861 130.698763,16.2569743 C131.336215,15.9692626 131.87255,15.5686831 132.308811,15.0547322 C132.744029,14.5412851 133.073961,13.9351253 133.297044,13.2362527 C133.520126,12.5378841 133.631667,11.777539 133.631667,10.9557213 M119.861001,21.8338461 L119.861001,0 L128.494073,0 C130.348485,0 131.982146,0.287075761 133.395057,0.860724522 C134.80745,1.4353788 135.988235,2.2141535 136.936896,3.19805414 C137.885557,4.18195478 138.602093,5.33528541 139.087022,6.65804606 C139.571433,7.97980118 139.814415,9.390042 139.814415,10.8862547 C139.814415,12.5468698 139.545584,14.0486129 139.007924,15.3909812 C138.470263,16.734355 137.706164,17.8821553 136.715628,18.8353876 C135.724058,19.7891226 134.53345,20.5271738 133.142253,21.0495411 C131.750539,21.5724111 130.201146,21.8338461 128.494073,21.8338461 L119.861001,21.8338461" id="D"></path>
        </g>
    </g>
</svg>